<?xml version="1.0" encoding="UTF-8" standalone="no"?>
<!-- Generator: Adobe Illustrator 12.0.1, SVG Export Plug-In  -->

<svg
   xmlns:dc="http://purl.org/dc/elements/1.1/"
   xmlns:cc="http://creativecommons.org/ns#"
   xmlns:rdf="http://www.w3.org/1999/02/22-rdf-syntax-ns#"
   xmlns:svg="http://www.w3.org/2000/svg"
   xmlns="http://www.w3.org/2000/svg"
   xmlns:sodipodi="http://sodipodi.sourceforge.net/DTD/sodipodi-0.dtd"
   xmlns:inkscape="http://www.inkscape.org/namespaces/inkscape"
   version="1.1"
   width="121.97656"
   height="121.95782"
   viewBox="-1 0 121.97655 121.95781"
   enable-background="new -1 0 292 291"
   xml:space="preserve"
   id="svg2"
   inkscape:version="0.48.2 r9819"
   sodipodi:docname="Australia W5-12.svg"><metadata
   id="metadata24"><rdf:RDF><cc:Work
       rdf:about=""><dc:format>image/svg+xml</dc:format><dc:type
         rdf:resource="http://purl.org/dc/dcmitype/StillImage" /><dc:title></dc:title></cc:Work></rdf:RDF></metadata><sodipodi:namedview
   pagecolor="#ffffff"
   bordercolor="#666666"
   borderopacity="1"
   objecttolerance="10"
   gridtolerance="10"
   guidetolerance="10"
   inkscape:pageopacity="0"
   inkscape:pageshadow="2"
   inkscape:window-width="1280"
   inkscape:window-height="1004"
   id="namedview22"
   showgrid="false"
   fit-margin-top="0"
   fit-margin-left="0"
   fit-margin-right="0"
   fit-margin-bottom="0"
   inkscape:zoom="4.5876893"
   inkscape:cx="65.466714"
   inkscape:cy="58.496612"
   inkscape:window-x="-8"
   inkscape:window-y="-8"
   inkscape:window-maximized="1"
   inkscape:current-layer="svg2" />
<defs
   id="defs4">
</defs>





<polygon
   points="89.25,160.661 121.914,127.982 168.102,127.982 200.801,160.661 200.801,206.885 168.102,239.552 121.914,239.552 89.25,206.885 "
   id="polygon16"
   style="fill:none;stroke:none"
   transform="matrix(1.1719259,0,0,1.1719259,-23.104346,289.71883)" />


<path
   inkscape:connector-curvature="0"
   d="M 0.74468477,65.216248 55.76968,120.24125 c 2.28875,2.28875 6.104999,2.28875 8.4325,0 l 55.02875,-55.025002 c 2.3275,-2.32625 2.3275,-6.1425 0,-8.475 L 64.202179,1.7175 c -2.3275,-2.29 -6.14375,-2.29 -8.4325,0 L 0.74468477,56.741248 c -2.32624997,2.3325 -2.32624997,6.14875 0,8.475"
   style="fill:#fee011;fill-opacity:1;fill-rule:evenodd;stroke:none"
   id="path3121" /><path
   inkscape:connector-curvature="0"
   d="m 56.569679,119.28625 c 1.9875,1.60625 4.35125,1.9875 6.412501,0.345 l 0.418749,-0.3075 54.951251,-54.987502 c 1.9075,-2.2525 1.9075,-4.58 0,-6.8325 L 63.400929,2.51625 c -1.8275,-1.48875 -3.926249,-1.945 -6.025,-0.60875 l -0.3825,0.3075 -0.42375,0.30125 -54.9499942,54.987498 c -1.90875003,2.2525 -1.90875003,4.5425 0,6.795 L 56.569679,119.28625"
   style="fill:#000000;fill-opacity:1;fill-rule:evenodd;stroke:none"
   id="path3125" /><path
   inkscape:connector-curvature="0"
   d="m 60.61843,118.3325 c 0.41875,-0.11125 0.61,-0.265 0.99125,-0.535 l 54.95,-54.951252 c 1.065,-1.335 1.065,-2.32625 0,-3.6625 L 61.60968,4.23375 c -1.07125,-0.8 -2.17875,-0.7625 -3.20625,0.0375 L 3.4159348,59.221248 c -1.03375,1.29875 -1.03375,2.29 0,3.58875 L 58.40343,117.76 c 0.72625,0.61 1.29875,0.68875 2.215,0.5725"
   style="fill:#fee011;fill-opacity:1;fill-rule:evenodd;stroke:none"
   id="path3129" /><path
   d="m 96.680932,78.873753 0,-33.347498 -73.229996,33.347498 73.229996,0 z m -42.892497,-27.548749 -1.87125,-4.653749 4.923749,-2.0625 5.115,3.207499 -8.167499,3.50875 z m -1.26125,0.57125 -1.7925,-4.616249 -4.54125,1.792499 c -1.56375,0.95375 -1.90875,1.6425 -1.79125,2.7075 l 0.41875,3.4775 7.70625,-3.36125 z m -12.17,14.76625 c -0.95375,-3.12625 -1.18625,-7.59 1.485,-10.26125 -0.6475,-2.7125 1.26125,-6.48625 2.2525,-7.52 0.99125,-0.99125 0.7625,-0.99125 1.68,-1.33625 l 9.847499,-4.271249 c 1.145,-0.345 2.09875,-0.11625 2.89875,0.345 l 5.2625,3.47125 7.44125,-3.435 c 1.187499,-0.34375 2.559999,0.22875 3.132499,1.68 l 2.1725,4.844999 -0.535,0.72625 -0.68375,0.2275 c -2.4425,-5.342499 -10.874999,-2.13625 -8.432499,3.74125 l -14.161249,6.40875 c -2.82,-5.76125 -10.3775,-1.5275 -8.4325,3.66125 l -3.9275,1.7175 z m 33.654998,-11.33125 c 1.33625,-1.52625 1.1825,-3.89 -0.34375,-5.26875 -1.56375,-1.335 -3.927499,-1.18125 -5.262499,0.345 -1.37875,1.56375 -1.225,3.9325 0.33875,5.26875 1.52625,1.3725 3.894999,1.21875 5.267499,-0.345 z m -22.704998,10.075 c 1.33625,-1.56375 1.145,-3.97 -0.34375,-5.2675 -1.56375,-1.41 -3.97,-1.25625 -5.3425,0.3075 -1.33625,1.52625 -1.1825,3.92625 0.38125,5.305 1.52625,1.335 3.9325,1.18125 5.305,-0.345"
   style="fill:#000000;fill-opacity:1;fill-rule:evenodd;stroke:none"
   id="path3221"
   inkscape:connector-curvature="0" /></svg>